# xmcd
#
# Track frame offsets: 
#        150
#        20718
#        42535
#        67887
#        107541
#        134167
#        164009
#        183038
#        203472
#        218102
#        234536
#
# Disc length: 3377 seconds
#
# Revision: 1
# Processed by: cddbd v1.5.1PL0 Copyright (c) Steve Scherf et al.
# Submitted via: ExactAudioCopy v0.95b3
#
DISCID=9b0d2f0b
DTITLE=Antonio Farao - Encore
DYEAR=2004
DGENRE=Jazz
TTITLE0=Gospello
TTITLE1=Encore
TTITLE2=Now It's Different!
TTITLE3=I'm Lost
TTITLE4=Vera
TTITLE5=Three
TTITLE6=Dede
TTITLE7=A Double Life And More
TTITLE8=Sylvie
TTITLE9=News From Europe
TTITLE10=Japan
EXTD=YEAR: 2004
EXTT0=
EXTT1=
EXTT2=
EXTT3=
EXTT4=
EXTT5=
EXTT6=
EXTT7=
EXTT8=
EXTT9=
EXTT10=
PLAYORDER=
